<?xml version="1.0" encoding="UTF-8" standalone="no"?>
<!DOCTYPE svg PUBLIC "-//W3C//DTD SVG 20010904//EN"
              "http://www.w3.org/TR/2001/REC-SVG-20010904/DTD/svg10.dtd">

<svg xmlns="http://www.w3.org/2000/svg"
	xmlns:xlink="http://www.w3.org/1999/xlink"
	width="567px" height="361px"
	viewBox="0 0 567 361">
	<defs>
		<style type="text/css">
			text {
				fill: #000;
				font-family: sans;
				font-style: normal;
				font-weight: normal;
				font-size: 18px;
				text-anchor:start;
			}
			rect.basic {
				fill: #fff286;
				stroke: black;
				stroke-width:0.5;
			}
			rect.making {
				fill: #99f080;
				stroke: black;
				stroke-width:0.5;
			}
			rect.test {
				fill: #aaaaf0;
				stroke: black;
				stroke-width:0.5;
			}
		</style>
		
		<g id="arrows">
			<g id="strzalka_dol">
				<path
					fill="none" stroke="black" stroke-width="1"
					d="M 147.00,24.00
						C 147.00,24.00 155.33,24.67 164.00,24.67 172.00,24.00 182.00,26.67 178.00,40.00 168.67,54.67 178.00,54.67 176.00,68.00" />
				<path
					fill="black" stroke="black" stroke-width="1"
					d="M 176.00,68.00
						L 180.00,61.33 172.00,61.33 176.00,68.00" />
			</g>
			<g id="strzalka_gora">
				<g transform="translate(92,85) rotate(180) translate(-147,-24)">
					<path
						fill="none" stroke="black" stroke-width="1" style="stroke-dasharray: 0,1,2"
						d="M 147.00,24.00
							C 147.00,24.00 155.33,24.67 164.00,24.67 172.00,24.00 182.00,26.67 178.00,40.00 168.67,54.67 178.00,54.67 176.00,68.00" />
					<path
						fill="black" stroke="black" stroke-width="1"
						d="M 176.00,68.00
							L 180.00,61.33 172.00,61.33 176.00,68.00" />
				</g>
			</g>
		</g>
	</defs>

	<!-- strzałki -->
	<use xlink:href="#arrows" />
	<use xlink:href="#arrows" transform="translate( 80, 60)" />
	<use xlink:href="#arrows" transform="translate(160,120)" />
	<use xlink:href="#arrows" transform="translate(240,180)" />
	<use xlink:href="#arrows" transform="translate(320,240)" />

	<!-- ramki -->
	<rect class="basic" x=" 12" y="  8" width="135" height="33" />
	<rect class="basic" x=" 92" y=" 68" width="135" height="33" />
	
	<rect class="making" x="172" y="128" width="135" height="33" />
	<rect class="making" x="252" y="188" width="135" height="33" />
	
	<rect class="test" x="332" y="248" width="135" height="33" />
	<rect class="test" x="412" y="308" width="135" height="33" />
	
	<!-- tekst -->
	<text x=" 20.00" y="30.00">Planowanie</text>
	<text x="100.00" y="90.00">Analiza</text>
	
	<text x="180.00" y="150.00">Projekt</text>
	<text x="260.00" y="210.00">Implementacja</text>
	
	<text x="340.00" y="270.00">Testowanie</text>
	<text x="420.00" y="330.00">Pielęgnacja</text>
</svg>
